<svg width="16" height="16" viewBox="0 0 16 16" fill="none" xmlns="http://www.w3.org/2000/svg">
<path fill-rule="evenodd" clip-rule="evenodd" d="M13.617 2H12.6444V0H10.6991V2H4.86322V0H2.91793V2H1.94529C0.870935 2 0 2.89543 0 4V14C0 15.1046 0.870935 16 1.94529 16H13.617C14.6914 16 15.5623 15.1046 15.5623 14V4C15.5623 2.89543 14.6914 2 13.617 2ZM13.9088 13.3C13.9088 13.8523 13.4733 14.3 12.9362 14.3H2.62614C2.08896 14.3 1.6535 13.8523 1.6535 13.3V5.7C1.6535 5.14772 2.08896 4.7 2.62614 4.7H12.9362C13.4733 4.7 13.9088 5.14772 13.9088 5.7V13.3ZM5.83587 10V12H3.89058V10H5.83587ZM5.83587 9V7H3.89058V9H5.83587ZM6.80851 7H8.7538V9H6.80851V7ZM8.7538 10H6.80851V12H8.7538V10ZM11.6717 7V9H9.72644V7H11.6717ZM11.6717 12V10H9.72644V12H11.6717Z" fill="#999999"/>
</svg>
